PathFileType	4	(X/Y/Z)	C:/Users/beibeiliu/ov580/test_trc\sequence.27_training_dense_left.trc
DataRate	CameraRate	NumFrames	NumMarkers	Units	OrigDataRate	OrigDataStartFrame	OrigNumFrames
120	120	24	19	mm	120	29	56
Frame#	Time	ThumbCMC			ThumbMCP			ThumbIP			ThumbTip			IndexMCP			IndexPIP			IndexTip			MiddleMCP			MiddlePIP			MiddleTip			RingMCP			RingPIP			RingTip			PinkyMCP			PinkyPIP			PinkyTip			BackHand1			BackHand2			BackHand3	
		X0	Y0	Z0	X1	Y1	Z1	X2	Y2	Z2	X3	Y3	Z3	X4	Y4	Z4	X5	Y5	Z5	X6	Y6	Z6	X7	Y7	Z7	X8	Y8	Z8	X9	Y9	Z9	X10	Y10	Z10	X11	Y11	Z11	X12	Y12	Z12	X13	Y13	Z13	X14	Y14	Z14	X15	Y15	Z15	X16	Y16	Z16	X17	Y17	Z17	X18	Y18	Z18	
28	0.233333	-159.845	33.9308	152.501	-143.903	31.8545	138.847	-125.251	43.5412	121.351	-109.509	51.9248	112.657	-169.899	46.1977	78.6865	-167.28	46.4499	55.838	-168.935	50.1214	26.6685	-186.873	43.1048	73.5254	-184.714	45.7404	45.4927	-185.847	49.0841	22.3122	-210.801	29.5255	70.5621	-211.571	29.6359	47.0697	-214.661	30.1424	24.8818	-224.145	17.7265	83.4902	-226.014	13.8624	60.1951	-230.319	17.7538	37.5601	-219.233	36.112	120.92	-220.659	36.1425	155.669	-191.396	47.5386	140.812	
29	0.241667	-152.33	25.6003	156.899	-134.411	23.9644	138.824	-111.584	33.4947	126.718	-95.5344	37.9785	117.269	-158.821	33.3321	80.4518	-151.224	32.1044	55.446	-147.839	31.4131	27.8606	-178.082	33.1467	70.0299	-171.853	31.8116	45.7197	-166.4	34.2875	16.4357	-199.712	21.5311	71.7608	-201.356	18.0831	47.7851	-205.691	15.8304	23.5572	-213.117	11.1285	83.5419	-215.302	7.02132	59.4641	-216.406	7.05744	36.3098	-204.716	32.574	124.87	-209.377	33.6089	151.84	-178.89	42.0995	140.443	
30	0.25	-147.991	27.0583	155.296	-123.041	28.4185	143.802	-106.389	30.2228	129.863	-86.7845	37.4698	118.563	-140.693	23.0054	79.3421	-138.365	16.0715	60.049	-133.534	10.4853	30.5833	-164.598	18.4582	73.6293	-156.771	13.2099	47.5153	-150.469	9.17711	22.4604	-186.423	8.12795	71.2016	-187.333	-0.997451	48.4396	-181.098	-6.82748	24.5477	-201.364	-1.67658	82.9671	-200.352	-9.63953	64.5218	-198.226	-13.0362	36.2154	-200.269	26.7903	118.577	-205.119	32.1203	149.524	-173.217	39.321	136.999	
31	0.258333	-146.077	40.356	160.3	-120.25	45.5226	150.067	-104.523	48.858	134.748	-86.3063	59.7394	127.239	-130.328	18.5263	84.9425	-118.303	11.3828	68.7861	-110.699	2.86732	44.3993	-144.702	9.63049	75.787	-133.89	0.617649	56.3964	-123.07	-3.91375	31.5238	-169.019	-7.10128	79.7861	-161.459	-17.069	61.8569	-153.763	-27.6178	36.6386	-184.725	-15.2775	91.5646	-177.492	-26.4491	70.3632	-171.838	-32.0894	51.2055	-190.435	20.2225	119.169	-199.186	29.9196	147.759	-165.202	41.1984	136.104	
32	0.266667	-150.785	55.7586	157.273	-129.522	65.4558	149.264	-110.281	76.0905	134.534	-96.8627	84.8691	123.911	-122.668	32.92	92.8183	-107.447	21.9259	73.4154	-97.253	12.1963	52.0707	-134.711	14.562	82.5127	-119.626	7.61556	63.9664	-103.368	2.30687	41.79	-147.927	-4.32335	84.6695	-138.484	-17.3238	69.9458	-125.438	-28.4819	49.8202	-163.175	-19.3572	95.2089	-148.568	-26.1946	79.7959	-139.181	-36.1027	58.3298	-182.906	16.6315	116.797	-197.336	27.6384	143.625	-171.461	42.6269	133.474	
33	0.275	-162.31	69.9349	154.962	-143.1	83.2907	144.663	-125.752	96.8176	126.896	-117.976	108.078	120.61	-124.501	45.6111	91.6075	-106.89	40.9784	73.8698	-91.0569	34.9529	54.285	-126.02	29.5764	82.0544	-110.87	24.8163	66.6675	-94.8465	22.7829	46.573	-132.3	5.5828	86.1554	-119.059	-4.24077	74.3085	-101.531	-13.1422	54.0076	-142.231	-12.6698	95.5819	-126.133	-16.1936	84.8221	-117.854	-25.698	65.6358	-175.036	19.9884	116.251	-193.6	23.7343	136.982	-175.557	47.836	128.129	
34	0.283333	-176.649	74.9583	150.027	-162.011	95.5037	141.453	-150.105	109.618	124.612	-142.9	124.615	112.018	-134.973	65.4765	87.7957	-113.296	64.1079	66.8441	-100.734	60.9373	51.1886	-130.273	46.8409	77.1202	-112.445	45.1718	60.6135	-94.6394	47.0536	38.6905	-129.855	18.6227	84.9725	-110.67	17.1896	70.1505	-91.2594	10.1202	52.9749	-134.109	1.66976	99.8158	-114.055	1.01158	84.1328	-101.113	-2.86524	66.1881	-173.485	23.6415	114.104	-195.036	21.2869	137.622	-182.646	49.4306	124.373	
35	0.291667	-189.639	74.9692	149.505	-177.907	95.9014	134.516	-169.622	110.524	119.373	-164.629	127.779	106.138	-147.44	73.8709	82.8923	-127.76	80.6184	63.2918	-114.18	78.0966	47.6536	-137.744	50.6545	73.8344	-121.596	58.1487	57.7167	-106.643	62.7024	35.8214	-131.275	26.4733	82.8224	-112.05	27.7002	66.6646	-93.7328	27.4788	51.896	-128.019	11.2242	93.7952	-110.684	13.3441	82.3278	-97.9909	8.55915	67.8795	-173.351	20.6234	110.918	-193.823	15.1291	134.733	-189.327	47.0009	125.482	
36	0.3	-203.206	65.8819	146.562	-195.351	86.6327	131.176	-191.324	103.062	114.956	-194.484	122.856	101.976	-160.828	65.7872	79.2593	-147.262	72.5057	62.5301	-131.864	74.1842	42.0222	-152.482	49.0906	72.8634	-139.019	57.7567	55.8447	-122.563	59.6396	32.6383	-139.828	26.6844	82.1854	-122.711	30.2138	67.2223	-101.059	34.6868	44.6321	-131.817	15.8192	92.7142	-116.642	20.2888	81.1357	-101.223	15.8577	62.2118	-176.846	11.4126	114.817	-194.622	6.40665	135.208	-197.466	36.7697	124.34	
37	0.308333	-216.061	50.7849	143.449	-216.035	72.2229	126.471	-217.553	87.6637	110.923	-224.838	103.906	96.5167	-180.059	54.5829	71.6272	-170.037	62.7439	53.3778	-159.066	67.7575	32.8718	-168.606	37.0128	71.2384	-157.032	46.3187	49.9421	-144.382	50.8103	26.4334	-150.806	19.8507	79.5356	-135.813	28.531	58.7068	-116.035	29.9112	38.2849	-142.249	8.79112	94.6865	-126.616	15.6678	79.186	-118.461	17.2442	59.7854	-185.73	4.52858	117.844	-195.322	-8.31255	140.291	-209.934	24.8733	123.086	
38	0.316667	-227.628	33.5428	144.842	-234.776	55.8618	129.148	-242.342	68.8624	108.756	-246.662	79.8248	94.8217	-204.32	34.364	73.3995	-197.473	44.4808	48.7078	-185.342	43.7639	27.0239	-191.125	22.4338	68.6428	-179.553	28.0946	45.061	-169.817	31.358	17.2138	-168.044	9.06771	75.0198	-154.61	12.9081	56.11	-140.39	16.2052	34.7353	-154.313	1.14959	90.1271	-140.918	4.2015	74.9091	-129.892	2.74645	50.5769	-190.372	-10.3371	120.985	-202.771	-16.3836	144.717	-222.016	6.59923	127.145	
39	0.325	-238.276	16.615	145.864	-243.769	34.5775	129.331	-257.711	47.114	105.141	-269.923	57.4749	88.5284	-221.63	10.5168	67.9858	-218.728	15.8302	49.4579	-210.864	16.7602	22.2379	-205.645	-4.27711	64.7211	-200.76	1.6794	41.0132	-195.479	1.85835	18.0181	-185.826	-12.7525	74.355	-172.483	-10.8768	52.3246	-159.92	-11.006	27.7595	-168.32	-18.9778	86.391	-158.448	-15.7751	68.7336	-149.254	-17.2997	45.463	-204.776	-27.5104	122.299	-207.797	-32.3488	149.703	-233.224	-11.1052	133.317	
40	0.333333	-249.618	13.4975	145.27	-252.658	26.8365	125.571	-266.475	37.0933	105.276	-278.861	47.5885	91.7788	-238.779	-6.27822	68.3318	-237.107	-0.502777	46.7922	-231.189	-4.69676	23.5458	-225.969	-20.8075	65.8354	-224.022	-18.2227	42.7007	-225.585	-16.7347	14.695	-203.473	-33.661	73.3762	-197.093	-33.7209	50.5661	-188.899	-33.2991	22.1471	-190.219	-37.25	86.89	-179.941	-38.0243	66.2888	-178.657	-41.8199	42.2964	-215.556	-42.1258	121.282	-220.829	-41.8879	152.364	-243.374	-22.8356	135.525	
41	0.341667	-247.395	19.7779	146.702	-244.593	33.2373	128.859	-259.951	49.496	105.618	-269.258	59.5211	92.1187	-250.923	0.284315	72.362	-249.557	2.28327	50.2133	-246.832	-3.52802	25.561	-243.418	-19.84	65.0537	-244.057	-17.0754	42.0062	-245.057	-20.6205	14.7164	-225.219	-39.5021	72.666	-222.925	-38.2358	48.2129	-218.765	-40.0151	20.9741	-210.268	-48.9063	82.2939	-206.414	-48.1088	60.6222	-206.179	-54.2274	34.9203	-234.381	-40.7332	122.465	-236.311	-38.2806	151.85	-253.23	-13.5798	138.313	
42	0.35	-234.571	33.3019	144.687	-232.299	52.8515	130.787	-237.332	66.7642	107.069	-241.876	82.2468	96.0214	-250.698	23.2057	73.5174	-248.725	23.6719	46.9015	-252	20.1523	21.7232	-250.128	0.949708	63.7221	-251.202	1.59177	40.7885	-256.717	5.84703	12.1397	-239.137	-23.4827	70.4903	-237.777	-27.4058	44.2279	-238.487	-25.9324	19.0081	-228.668	-38.4946	79.3665	-227.363	-37.4171	57.2815	-231.728	-40.0314	34.4012	-246.263	-24.3854	123.477	-244.68	-24.9792	151.651	-252.472	5.13294	138.29	
43	0.358333	-220.094	49.1321	146.962	-212.69	63.964	129.673	-212.634	83.3099	114.098	-212.955	103.553	98.5459	-240.585	42.8236	71.1981	-239.429	50.4774	51.1181	-244.693	47.7104	27.6353	-246.51	24.3872	66.4591	-248.402	32.4607	39.6686	-252.837	33.3093	15.1755	-244.435	1.88076	64.8963	-245.033	-0.5979	45.1723	-247.865	-3.14004	17.1873	-239.198	-14.0502	74.4414	-238.237	-16.6379	54.8349	-244.408	-16.9857	34.4755	-250.102	0.0472616	118.226	-248.721	-7.60262	148.838	-245.389	28.8255	138.391	
44	0.366667	-199.765	55.2491	147.638	-185.049	74.6409	131.788	-180.716	96.8359	113.004	-176.553	109.592	100.928	-220.123	69.41	74.7286	-220.016	74.0828	52.7045	-226.147	76.426	26.0291	-232.756	55.2135	68.551	-234.211	59.0838	43.8969	-238.732	68.6119	16.3378	-241.049	29.3747	62.4788	-242.594	29.4548	43.9402	-247.069	29.9135	15.6856	-240.441	10.6879	75.2354	-241.596	10.1141	48.8869	-246.91	15.7157	26.5988	-244.11	25.0995	118.351	-242.527	21.1515	146.209	-230.435	52.5165	135.265	
45	0.375	-175.025	58.2021	144.612	-156.513	69.7759	128.338	-145.057	84.3509	115.822	-133.896	98.708	107.477	-192.03	85.1036	75.3798	-189.067	91.699	51.2627	-193.654	97.1133	27.7582	-209.585	78.5728	66.6824	-211.234	84.9787	40.6975	-211.4	96.0044	19.2053	-224.981	59.4151	65.6414	-228.424	59.852	43.8418	-233.355	64.8427	13.4276	-234.775	38.2243	68.2528	-236.197	36.7056	47.9638	-239.959	43.6203	27.5209	-233.229	46.419	117.203	-231.162	41.9717	147.025	-207.348	64.3896	137.2	
46	0.383333	-154.954	52.0789	141.74	-133.158	54.6418	130.823	-117.386	66.3758	117.338	-101.468	77.6774	104.138	-163.082	80.6766	74.7899	-160.272	85.5544	51.8748	-163.045	90.0966	25.0227	-180.336	82.1054	66.5701	-177.368	90.8301	40.1344	-176.21	98.386	16.7583	-207.622	63.5211	63.1915	-204.769	68.941	40.3054	-209.949	72.3989	14.3659	-218.708	49.2729	64.7438	-217.603	49.2446	48.6046	-220.276	53.1135	24.3366	-210.936	58.6894	113.302	-215.784	48.991	143.048	-183.794	65.1963	134.214	
47	0.391667	-142.858	34.2431	143.615	-124.558	30.7133	128.721	-98.5273	39.6891	118.504	-82.0245	43.0033	112.041	-142.064	58.0912	68.9397	-135.396	58.0655	49.2416	-133.401	61.3749	21.8483	-162.019	60.54	64.7293	-157.467	65.2074	37.3705	-148.811	71.2059	11.5618	-188.847	51.1103	56.854	-186.548	51.8494	36.6926	-189.236	54.533	9.13885	-202.991	39.044	66.5072	-203.756	36.8715	43.6514	-203.525	41.0228	19.3327	-197.274	49.7388	112.898	-200.345	50.0607	138.407	-168.039	55.5877	131.704	
48	0.4	-138.393	12.7063	151.584	-119.299	1.7566	137.875	-92.2071	2.2589	125.621	-76.3318	0.2091	114.121	-130.509	15.1295	73.0603	-125.734	9.58982	50.6862	-122.595	8.10995	26.32	-150.889	19.4083	64.1238	-140.501	15.2211	39.2759	-132.769	15.4728	12.412	-174.794	14.7649	63.4045	-179.403	10.3133	37.8665	-173.76	6.44886	11.1753	-195.911	10.6254	66.9543	-193.643	4.48785	47.7624	-194.494	7.41478	29.8914	-186.446	33.6764	112.562	-189.503	37.9063	136.645	-159.566	34.9187	131.587	
49	0.408333	-129.388	-2.38797	153.588	-115.695	-15.2716	144.801	-92.5753	-21.9176	131.84	-72.7989	-26.2896	124.579	-127.381	-21.8811	77.7483	-121.64	-33.9245	58.5056	-118.885	-39.278	37.6792	-145.107	-16.6641	68.5044	-141.466	-27.987	47.7733	-136.496	-33.6656	19.1827	-173.951	-17.1791	67.4367	-175.11	-29.4514	47.3403	-177.939	-36.823	24.7955	-189.871	-16.4934	80.7569	-190.124	-29.8092	65.3905	-193.594	-22.7853	44.5507	-176.028	15.8284	109.43	-177.94	26.2567	137.43	-148.747	16.3017	130.348	
50	0.416667	-128.217	2.74185	158.606	-108.684	-11.8358	148.455	-87.7073	-19.3466	138.107	-66.698	-21.8968	133.647	-122.834	-31.621	89.0737	-121.104	-46.9595	66.4033	-115.463	-56.4836	48.6899	-142.798	-31.2913	75.1257	-138.438	-46.0409	55.604	-134.804	-56.531	33.0447	-169.238	-32.3383	76.0623	-174.357	-50.2582	57.3709	-174.381	-65.3215	36.0675	-188.316	-38.155	86.747	-190.443	-46.3101	82.9446	-186.462	-41.1836	69.7201	-173.378	9.12915	110.642	-177.675	25.399	131.693	-145.935	13.8756	128.155	
51	0.425	-128.525	14.6624	159.373	-104.469	6.5913	153.757	-83.6574	0.498545	141.171	-59.9884	1.65484	133.704	-117.71	-23.6918	89.082	-109.949	-39.8027	71.4533	-106.011	-51.8576	50.4175	-135.095	-27.2387	78.8547	-126.017	-41.4046	62.3912	-120.975	-58.2139	34.9159	-158.906	-34.7992	78.9774	-158.188	-55.9573	62.3053	-160.417	-73.6645	47.9122	-181.784	-43.2386	92.2549	-173.918	-45.3211	102.189	-175.068	-44.2014	76.5791	-172.513	4.88638	111.144	-184.386	21.8704	132.779	-146.402	19.1829	128.053	
